<?xml version="1.0" encoding="utf-8"?>
<!-- Generator: Adobe Illustrator 15.0.0, SVG Export Plug-In . SVG Version: 6.00 Build 0)  -->
<!DOCTYPE svg PUBLIC "-//W3C//DTD SVG 1.1//EN" "http://www.w3.org/Graphics/SVG/1.1/DTD/svg11.dtd">
<svg version="1.1" id="Layer_1" xmlns="http://www.w3.org/2000/svg" xmlns:xlink="http://www.w3.org/1999/xlink" x="0px" y="0px"
	 width="611.97px" height="595.28px" viewBox="0 0 611.97 595.28" enable-background="new 0 0 611.97 595.28" xml:space="preserve">
<g>
	<g>
		<g>
			<g>
				<g>
					<path fill="#A59890" d="M225.317,501.271h-8.602v5.439h8.602v2.542h-8.602v9.151h-3.167v-19.677h11.769V501.271z"/>
					<path fill="#A59890" d="M241.92,498.469c7.28,0,11.873,4.61,11.873,10.087c0,5.312-4.465,10.087-11.932,10.087
						c-7.202,0-11.769-4.746-11.769-10.087C230.092,503.116,234.779,498.469,241.92,498.469z M241.92,516.052
						c4.946,0,8.603-3.198,8.603-7.496c0-4.318-3.657-7.504-8.603-7.504c-4.91,0-8.563,3.186-8.563,7.504
						C233.356,512.854,237.01,516.052,241.92,516.052z"/>
					<path fill="#A59890" d="M279.748,518.403h-2.725l-14.729-15.143v15.143h-2.98v-19.677h2.528l14.938,15.231v-15.231h2.967
						V518.403z"/>
					<path fill="#A59890" d="M286.309,498.727h8.563c8.154,0,11.739,5.185,11.739,9.829c0,5.044-4.435,9.848-11.709,9.848h-8.592
						V498.727z M289.471,515.862h5.043c7.183,0,8.832-4.883,8.832-7.307c0-3.951-2.82-7.285-8.981-7.285h-4.894V515.862z"/>
					<path fill="#A59890" d="M330.976,518.403h-3.238l-2.928-5.805h-9.375l-2.785,5.805h-3.235l9.476-19.789h2.233L330.976,518.403z
						 M316.669,510.059h6.842l-3.556-7.122L316.669,510.059z"/>
					<path fill="#A59890" d="M348.406,501.271h-7.629v17.133h-3.166v-17.133h-7.628v-2.544h18.423V501.271z"/>
					<path fill="#A59890" d="M356.976,518.403h-3.173v-19.677h3.173V518.403z"/>
					<path fill="#A59890" d="M374.396,498.469c7.274,0,11.863,4.61,11.863,10.087c0,5.312-4.465,10.087-11.921,10.087
						c-7.227,0-11.778-4.746-11.778-10.087C362.56,503.116,367.245,498.469,374.396,498.469z M374.396,516.052
						c4.938,0,8.593-3.198,8.593-7.496c0-4.318-3.654-7.504-8.593-7.504c-4.919,0-8.569,3.186-8.569,7.504
						C365.826,512.854,369.477,516.052,374.396,516.052z"/>
					<path fill="#A59890" d="M412.217,518.403h-2.721l-14.739-15.143v15.143h-2.97v-19.677h2.515l14.922,15.231v-15.231h2.993
						V518.403z"/>
				</g>
				<g>
					<g>
						<g>
							<g>
								<polygon fill="#A59890" points="321.614,559.08 347.271,559.08 347.271,555.927 325.997,555.927 325.997,545.921 
									341.988,545.921 341.988,542.729 325.997,542.729 325.997,533.525 347.271,533.525 347.271,530.307 321.614,530.307 
																	"/>
								<polygon fill="#A59890" points="334.937,525.761 331.437,529.653 342.384,525.761 								"/>
								<polygon fill="#A59890" points="390.302,555.927 390.302,530.307 386.299,530.307 386.299,559.08 412.217,559.08 
									412.217,555.927 								"/>
								<path fill="#A59890" d="M363.857,530.307l-14.575,28.773h4.951l3.704-7.428h17.479l3.801,7.428h4.864l-14.617-28.773
									H363.857z M359.814,548.027l6.883-13.651l6.934,13.651H359.814z"/>
								<path fill="#A59890" d="M307.69,547.105c6.567-1.772,7.215-6.652,7.186-8.426c-0.402-5.099-3.816-8.373-10.028-8.373
									h-18.114v28.773h4.144v-12.015h11.762l8.664,12.015h5.191C316.495,559.08,310.28,550.984,307.69,547.105z M304.275,543.639
									h-13.397v-9.852h13.882c3.159,0,4.968,1.488,5.616,3.362c0.432,1.308,0.153,3.035-0.561,4.219
									C308.655,543.227,306.435,543.639,304.275,543.639z"/>
								<path fill="#A59890" d="M261.954,525.531c-11.622,0-19.504,8.226-19.504,18.12c0,10.454,8.727,17.827,19.504,17.827
									c10.85,0,19.556-7.292,19.556-17.827C281.51,533.757,273.542,525.531,261.954,525.531z M261.813,557.948
									c-7.997,0-14.614-6.48-14.614-14.297c0-7.784,6.313-14.552,14.925-14.552c8.481,0,14.709,6.768,14.709,14.552
									C276.833,551.468,269.869,557.948,261.813,557.948z"/>
								<polygon fill="#A59890" points="232.019,540.558 235.042,540.558 240.431,530.307 236.098,530.307 								"/>
								<polygon fill="#A59890" points="217.497,555.927 217.497,530.307 213.548,530.307 213.548,559.08 239.421,559.08 
									239.421,555.927 								"/>
							</g>
						</g>
					</g>
				</g>
			</g>
		</g>
		<g>
			<path fill="#003D63" d="M420.616,22.819c-134.22-51.762-283.41,3.809-352.941,124.757l14.274,14.268
				C150.211,46.015,291.708-7.649,418.343,41.187C559.702,95.689,628.999,257.292,573.14,402.099
				c-24.248,62.875-68.123,112.227-121.571,143.502c59.277-31.312,107.961-83.289,133.983-150.747
				C642.753,246.588,568.907,80.021,420.616,22.819z"/>
		</g>
		<g>
			<g>
				<path fill="#003D63" d="M133.995,322.692h-4.144v-7.077h4.144V322.692z M133.995,374.549h-4.144v-38.806h4.144V374.549z"/>
				<path fill="#003D63" d="M148.255,342.487h0.17c3.621-5.449,7.17-7.52,12.789-7.52c8.308,0,14.431,5.445,14.431,15.906v23.675
					h-4.144v-22.128c0-8.727-3.719-13.391-10.549-13.391c-5.626,0-9.24,2.672-12.698,8.306v27.213h-4.153v-38.806h4.153V342.487z"/>
				<path fill="#003D63" d="M250.928,303.146c-8.465-4.834-12.831-6.28-18.506-6.28c-9.924,0-17.43,6.771-17.43,15.727
					c0,22.023,39.322,11.487,39.322,40.408c0,12.708-10.525,22.635-23.953,22.635c-6.78,0-13.921-2.428-21.172-7.255v-7.5
					c9.188,6.649,14.392,8.827,20.806,8.827c9.8,0,17.431-7.136,17.431-16.468c0-23.462-39.338-13.178-39.338-40.405
					c0-12.226,10.653-21.905,23.733-21.905c6.411,0,12.688,1.698,19.108,5.21V303.146z"/>
				<path fill="#003D63" d="M303.323,328.201c-6.296-2.67-9.557-3.393-14.159-3.393c-12.103,0-20.45,9.194-20.45,22.749
					c0,13.679,8.108,22.39,20.934,22.39c4.956,0,8.592-0.724,14.64-3.138v6.042c-6.175,2.054-10.035,2.783-15.124,2.783
					c-15.979,0-26.622-11.014-26.622-27.476c0-17.047,10.889-29.045,26.379-29.045c4.723,0,8.344,0.726,14.401,2.676V328.201z"/>
				<path fill="#003D63" d="M320.388,301.941h-5.816v-9.926h5.816V301.941z M320.388,374.549h-5.816v-54.336h5.816V374.549z"/>
				<path fill="#003D63" d="M338.048,345.385c-1.686,13.918,9.314,24.563,21.655,24.563c7.269,0,13.194-2.418,20.203-8.109v6.542
					c-6.403,4.962-13.054,7.255-20.926,7.255c-15.729,0-27.105-12.099-27.105-28.921c0-15.969,10.524-27.6,24.928-27.6
					c11.627,0,24.069,8.118,24.069,26.271H338.048z M373.983,340.662c-2.051-10.643-7.858-15.854-17.181-15.854
					c-8.949,0-15.972,5.937-18.026,15.854H373.983z"/>
				<path fill="#003D63" d="M396.486,329.65h0.242c5.077-7.625,10.042-10.536,17.921-10.536c11.612,0,20.195,7.641,20.195,22.268
					v33.167h-5.803v-30.976c0-12.226-5.204-18.765-14.769-18.765c-7.868,0-12.946,3.765-17.787,11.621v38.119h-5.808v-54.336h5.808
					V329.65z"/>
				<path fill="#003D63" d="M486.517,328.201c-6.295-2.67-9.567-3.393-14.165-3.393c-12.086,0-20.45,9.194-20.45,22.749
					c0,13.679,8.115,22.39,20.941,22.39c4.954,0,8.591-0.724,14.633-3.138v6.042c-6.169,2.054-10.031,2.783-15.124,2.783
					c-15.969,0-26.615-11.014-26.615-27.476c0-17.047,10.883-29.045,26.38-29.045c4.723,0,8.354,0.726,14.4,2.676V328.201z"/>
				<path fill="#003D63" d="M500.301,345.385c-1.688,13.918,9.328,24.563,21.663,24.563c7.261,0,13.197-2.418,20.21-8.109v6.542
					c-6.411,4.962-13.067,7.255-20.939,7.255c-15.717,0-27.099-12.099-27.099-28.921c0-15.969,10.532-27.6,24.933-27.6
					c11.609,0,24.083,8.118,24.083,26.271H500.301z M536.253,340.662c-2.061-10.643-7.868-15.854-17.185-15.854
					c-8.961,0-15.968,5.937-18.028,15.854H536.253z"/>
			</g>
			<g>
				<path fill="#003D63" d="M39.107,221.599H13.347v22.376h23.255v3.796H13.347v28.968H8.78V217.79h30.327V221.599z"/>
				<path fill="#003D63" d="M62.023,277.51c-11.317,0-19.789-8.643-19.789-20.128c0-11.594,8.472-20.236,19.789-20.236
					c11.32,0,19.697,8.642,19.697,20.236C81.721,268.867,73.344,277.51,62.023,277.51z M62.023,241.215
					c-8.819,0-15.386,6.821-15.386,16.167c0,9.236,6.567,16.069,15.386,16.069c8.723,0,15.294-6.833,15.294-16.069
					C77.318,248.127,70.747,241.215,62.023,241.215z"/>
				<path fill="#003D63" d="M113.971,245.612c-3.729-3.361-5.626-4.397-7.782-4.397c-3.814,0-8.21,3.979-12.449,11.134v24.389
					h-4.157v-38.811h4.157v10.199h0.18c4.572-7.264,9.237-10.981,13.561-10.981c2.679,0,5.096,1.206,8.906,4.583L113.971,245.612z"
					/>
				<path fill="#003D63" d="M169.091,277.578h-1.694l-33.157-83.371h6.544l27.338,68.486l27.704-68.486h1.937l27.589,68.486
					l27.348-68.486h6.528l-33.146,83.371h-1.577l-27.71-69.697L169.091,277.578z"/>
				<path fill="#003D63" d="M281.637,277.825c-15.853,0-27.7-12.11-27.7-28.203c0-16.21,11.847-28.314,27.7-28.314
					c15.854,0,27.593,12.104,27.593,28.314C309.23,265.714,297.492,277.825,281.637,277.825z M281.637,226.994
					c-12.34,0-21.535,9.571-21.535,22.628c0,12.951,9.194,22.52,21.535,22.52c12.23,0,21.418-9.569,21.418-22.52
					C303.055,236.686,293.867,226.994,281.637,226.994z"/>
				<path fill="#003D63" d="M325.683,231.954h0.249c4.831-7.616,9.915-10.646,17.294-10.646c8.465,0,14.043,4.232,17.557,13.072
					c5.43-9.077,11-13.072,18.867-13.072c11.382,0,18.88,8.712,18.88,22.029v33.402h-5.804V245.88
					c0-10.905-4.596-18.886-14.163-18.886c-6.652,0-11.012,3.627-16.458,12.712v37.033h-5.8v-30.977
					c0-13.45-6.676-18.769-14.283-18.769c-6.66,0-11.259,3.265-16.339,11.626v38.119h-5.814v-54.352h5.814V231.954z"/>
				<path fill="#003D63" d="M415.104,247.569c-1.691,13.911,9.309,24.572,21.659,24.572c7.262,0,13.192-2.426,20.208-8.125v6.548
					c-6.418,4.95-13.064,7.26-20.934,7.26c-15.735,0-27.102-12.11-27.102-28.926c0-15.978,10.524-27.591,24.914-27.591
					c11.625,0,24.086,8.102,24.086,26.262H415.104z M451.048,242.846c-2.069-10.655-7.873-15.853-17.197-15.853
					c-8.946,0-15.966,5.927-18.02,15.853H451.048z"/>
				<path fill="#003D63" d="M473.545,231.834h0.241c5.084-7.617,10.046-10.527,17.915-10.527c11.612,0,20.201,7.627,20.201,22.267
					v33.165h-5.806v-30.977c0-12.231-5.201-18.769-14.765-18.769c-7.866,0-12.953,3.742-17.787,11.626v38.119h-5.812v-54.352h5.812
					V231.834z"/>
			</g>
		</g>
	</g>
	<g>
		<g>
			<g>
				<g>
					<path fill="#A59890" d="M173.719,454.753c0.232,0.255,0.37,0.54,0.37,0.894c0,0.342-0.137,0.634-0.37,0.896
						c-0.245,0.235-0.576,0.37-0.939,0.37c-0.31,0-0.63-0.135-0.87-0.37c-0.258-0.262-0.356-0.554-0.356-0.896
						c0-0.354,0.098-0.639,0.356-0.894c0.239-0.232,0.56-0.363,0.87-0.363C173.144,454.39,173.474,454.521,173.719,454.753z"/>
					<path fill="#A59890" d="M173.719,459.604c0.232,0.229,0.37,0.536,0.37,0.886s-0.137,0.647-0.37,0.899
						c-0.245,0.255-0.576,0.355-0.939,0.355c-0.31,0-0.63-0.101-0.87-0.355c-0.258-0.252-0.356-0.55-0.356-0.899
						s0.098-0.657,0.356-0.886c0.239-0.236,0.56-0.378,0.87-0.378C173.144,459.227,173.474,459.368,173.719,459.604z"/>
				</g>
				<g>
					<path fill="#A59890" d="M173.719,464.438c0.232,0.241,0.37,0.542,0.37,0.886c0,0.351-0.137,0.647-0.37,0.9
						c-0.245,0.245-0.576,0.343-0.939,0.343c-0.31,0-0.63-0.098-0.87-0.343c-0.258-0.253-0.356-0.55-0.356-0.9
						c0-0.344,0.098-0.645,0.356-0.886c0.239-0.236,0.56-0.37,0.87-0.37C173.144,464.068,173.474,464.202,173.719,464.438z"/>
					<path fill="#A59890" d="M173.719,469.646c0.232,0.268,0.37,0.565,0.37,0.909c0,0.333-0.137,0.641-0.37,0.881
						c-0.245,0.251-0.576,0.368-0.939,0.368c-0.31,0-0.63-0.117-0.87-0.368c-0.258-0.24-0.356-0.548-0.356-0.881
						c0-0.344,0.098-0.642,0.356-0.909c0.239-0.216,0.56-0.354,0.87-0.354C173.144,469.292,173.474,469.43,173.719,469.646z"/>
				</g>
				<g>
					<path fill="#A59890" d="M173.719,474.885c0.232,0.236,0.37,0.55,0.37,0.877c0,0.366-0.137,0.654-0.37,0.877
						c-0.245,0.277-0.576,0.372-0.939,0.372c-0.31,0-0.63-0.095-0.87-0.372c-0.258-0.223-0.356-0.511-0.356-0.877
						c0-0.327,0.098-0.641,0.356-0.877c0.239-0.255,0.56-0.372,0.87-0.372C173.144,474.513,173.474,474.63,173.719,474.885z"/>
					<path fill="#A59890" d="M173.719,480.249c0.232,0.229,0.37,0.543,0.37,0.884c0,0.359-0.137,0.641-0.37,0.886
						c-0.245,0.245-0.576,0.362-0.939,0.362c-0.31,0-0.63-0.117-0.87-0.362c-0.258-0.245-0.356-0.526-0.356-0.886
						c0-0.341,0.098-0.654,0.356-0.884c0.239-0.262,0.56-0.366,0.87-0.366C173.144,479.883,173.474,479.987,173.719,480.249z"/>
				</g>
				<g>
					<path fill="#A59890" d="M173.719,485.613c0.232,0.235,0.37,0.543,0.37,0.877c0,0.353-0.137,0.654-0.37,0.922
						c-0.245,0.223-0.576,0.354-0.939,0.354c-0.31,0-0.63-0.131-0.87-0.354c-0.258-0.268-0.356-0.569-0.356-0.922
						c0-0.334,0.098-0.642,0.356-0.877c0.239-0.208,0.56-0.359,0.87-0.359C173.144,485.254,173.474,485.405,173.719,485.613z"/>
					<path fill="#A59890" d="M173.719,491.413c0.232,0.259,0.37,0.565,0.37,0.909c0,0.343-0.137,0.642-0.37,0.893
						c-0.245,0.252-0.576,0.356-0.939,0.356c-0.31,0-0.63-0.104-0.87-0.356c-0.258-0.251-0.356-0.55-0.356-0.893
						c0-0.344,0.098-0.65,0.356-0.909c0.239-0.239,0.56-0.357,0.87-0.357C173.144,491.056,173.474,491.174,173.719,491.413z"/>
				</g>
				<g>
					<path fill="#A59890" d="M173.719,497.231c0.232,0.269,0.37,0.559,0.37,0.876c0,0.38-0.137,0.686-0.37,0.89
						c-0.245,0.271-0.576,0.384-0.939,0.384c-0.31,0-0.63-0.112-0.87-0.384c-0.258-0.204-0.356-0.51-0.356-0.89
						c0-0.317,0.098-0.607,0.356-0.876c0.239-0.248,0.56-0.363,0.87-0.363C173.144,496.868,173.474,496.983,173.719,497.231z"/>
				</g>
				<g>
					<path fill="#A59890" d="M173.719,503.368c0.232,0.216,0.37,0.543,0.37,0.869c0,0.367-0.137,0.643-0.37,0.897
						c-0.245,0.235-0.576,0.369-0.939,0.369c-0.31,0-0.63-0.134-0.87-0.369c-0.258-0.255-0.356-0.53-0.356-0.897
						c0-0.326,0.098-0.653,0.356-0.869c0.239-0.265,0.56-0.37,0.87-0.37C173.144,502.998,173.474,503.104,173.719,503.368z"/>
				</g>
				<g>
					<path fill="#A59890" d="M173.719,509.641c0.232,0.207,0.37,0.497,0.37,0.877c0,0.327-0.137,0.629-0.37,0.864
						c-0.245,0.235-0.576,0.368-0.939,0.368c-0.31,0-0.63-0.133-0.87-0.368c-0.258-0.235-0.356-0.537-0.356-0.864
						c0-0.38,0.098-0.67,0.356-0.877c0.239-0.268,0.56-0.396,0.87-0.396C173.144,509.245,173.474,509.373,173.719,509.641z"/>
				</g>
				<g>
					<path fill="#A59890" d="M173.719,516.156c0.232,0.252,0.37,0.565,0.37,0.906c0,0.357-0.137,0.645-0.37,0.88
						c-0.245,0.235-0.576,0.37-0.939,0.37c-0.31,0-0.63-0.135-0.87-0.37c-0.258-0.235-0.356-0.522-0.356-0.88
						c0-0.341,0.098-0.654,0.356-0.906c0.239-0.222,0.56-0.355,0.87-0.355C173.144,515.801,173.474,515.935,173.719,516.156z"/>
				</g>
				<g>
					<path fill="#A59890" d="M173.719,523.624c0.232,0.255,0.37,0.553,0.37,0.91c0,0.346-0.137,0.624-0.37,0.858
						c-0.245,0.256-0.576,0.383-0.939,0.383c-0.31,0-0.63-0.127-0.87-0.383c-0.258-0.234-0.356-0.513-0.356-0.858
						c0-0.357,0.098-0.655,0.356-0.91c0.239-0.252,0.56-0.375,0.87-0.375C173.144,523.249,173.474,523.372,173.719,523.624z"/>
				</g>
				<g>
					<path fill="#A59890" d="M173.719,531.811c0.232,0.27,0.37,0.557,0.37,0.89c0,0.36-0.137,0.654-0.37,0.894
						c-0.245,0.252-0.576,0.355-0.939,0.355c-0.31,0-0.63-0.104-0.87-0.355c-0.258-0.239-0.356-0.533-0.356-0.894
						c0-0.333,0.098-0.62,0.356-0.89c0.239-0.255,0.56-0.358,0.87-0.358C173.144,531.452,173.474,531.556,173.719,531.811z"/>
				</g>
				<g>
					<path fill="#A59890" d="M173.719,541.506c0.232,0.226,0.37,0.546,0.37,0.896c0,0.34-0.137,0.654-0.37,0.876
						c-0.245,0.269-0.576,0.38-0.939,0.38c-0.31,0-0.63-0.111-0.87-0.38c-0.258-0.222-0.356-0.536-0.356-0.876
						c0-0.351,0.098-0.671,0.356-0.896c0.239-0.235,0.56-0.354,0.87-0.354C173.144,541.152,173.474,541.271,173.719,541.506z"/>
				</g>
				<g>
					<path fill="#A59890" d="M173.719,551.946c0.232,0.229,0.37,0.53,0.37,0.883c0,0.36-0.137,0.642-0.37,0.881
						c-0.245,0.238-0.576,0.362-0.939,0.362c-0.31,0-0.63-0.124-0.87-0.362c-0.258-0.239-0.356-0.521-0.356-0.881
						c0-0.353,0.098-0.654,0.356-0.883c0.239-0.245,0.56-0.365,0.87-0.365C173.144,551.581,173.474,551.701,173.719,551.946z"/>
				</g>
				<g>
					<path fill="#A59890" d="M173.719,563.872c0.232,0.229,0.37,0.536,0.37,0.883c0,0.38-0.137,0.677-0.37,0.909
						c-0.245,0.229-0.576,0.334-0.939,0.334c-0.31,0-0.63-0.105-0.87-0.334c-0.258-0.232-0.356-0.529-0.356-0.909
						c0-0.347,0.098-0.654,0.356-0.883c0.239-0.249,0.56-0.374,0.87-0.374C173.144,563.498,173.474,563.623,173.719,563.872z"/>
				</g>
				<g>
					<path fill="#A59890" d="M173.719,577.275c0.232,0.255,0.37,0.55,0.37,0.896c0,0.353-0.137,0.642-0.37,0.874
						c-0.245,0.277-0.576,0.375-0.939,0.375c-0.31,0-0.63-0.098-0.87-0.375c-0.258-0.232-0.356-0.521-0.356-0.874
						c0-0.347,0.098-0.642,0.356-0.896c0.239-0.238,0.56-0.359,0.87-0.359C173.144,576.916,173.474,577.037,173.719,577.275z"/>
				</g>
				<g>
					<path fill="#A59890" d="M173.719,592.185c0.232,0.252,0.37,0.549,0.37,0.876c0,0.379-0.137,0.671-0.37,0.902
						c-0.245,0.229-0.576,0.364-0.939,0.364c-0.31,0-0.63-0.135-0.87-0.364c-0.258-0.231-0.356-0.523-0.356-0.902
						c0-0.327,0.098-0.624,0.356-0.876c0.239-0.255,0.56-0.364,0.87-0.364C173.144,591.82,173.474,591.93,173.719,592.185z"/>
				</g>
			</g>
		</g>
		<g>
			<path fill="#A59890" d="M97.646,474.215"/>
			<g>
				<rect x="46.807" y="549.768" fill="#A59890" width="102.109" height="4.193"/>
				<path fill="#A59890" d="M97.871,551.848"/>
			</g>
			<g>
				<rect x="41.044" y="556.892" fill="#A59890" width="113.446" height="4.232"/>
				<path fill="#A59890" d="M97.767,559.021"/>
			</g>
			<g>
				<rect x="35.693" y="564.029" fill="#A59890" width="124.358" height="4.216"/>
				<path fill="#A59890" d="M97.871,566.174"/>
			</g>
			<g>
				<rect x="46.807" y="497.429" fill="#A59890" width="102.109" height="4.192"/>
				<path fill="#A59890" d="M97.871,499.544"/>
			</g>
			<polygon fill="#A59890" points="67.459,494.079 97.871,485.109 127.604,494.079 140.027,494.079 97.871,481.254 55.043,494.079 
							"/>
			<polygon fill="#A59890" points="46.807,494.079 97.547,478.823 148.917,494.079 148.917,489.549 97.871,474.087 46.807,489.549 
							"/>
			<path fill="#A59890" d="M52.826,544.188c0,0,0,3.169,3.608,3.169c3.653,0,3.431-3.169,3.431-3.169v-40.775h-2.68v40.905
				c0,0,0,0.707-0.944,0.707c-0.966,0-0.759-0.922-0.759-0.922v-40.69h-2.656V544.188z"/>
			<polygon fill="#A59890" points="69.618,547.357 71.744,547.357 71.744,522.151 74.406,547.357 76.67,547.357 76.67,503.413 
				74.406,503.413 74.406,524.444 72.941,503.413 69.618,503.413 			"/>
			<polygon fill="#A59890" points="86.62,547.357 93.479,547.357 93.479,545.025 89.616,545.025 89.616,525.188 92.514,525.188 
				92.514,522.764 89.616,522.764 89.616,505.638 92.514,505.638 92.514,503.413 86.62,503.413 			"/>
			<path fill="#A59890" d="M125.988,516.464v-9.917c0,0-0.084-3.134-3.509-3.134c-3.392,0-3.392,3.134-3.392,3.134v37.642
				c0,0-0.118,3.169,3.392,3.169c3.509,0,3.509-3.169,3.509-3.169v-11.026h-2.669v11.026c0,0,0,0.837-0.84,0.837
				c-0.789,0-0.972-0.837-0.972-0.837v-37.642c0,0,0-0.909,0.972-0.909c0.84,0,0.84,0.909,0.84,0.909v9.917H125.988z"/>
			<path fill="#A59890" d="M143.022,524.596v-18.049c0,0,0.243-3.134-3.522-3.134c-3.729,0-3.729,3.134-3.729,3.134v37.642
				c0,0,0,3.169,3.496,3.169c3.754,0,3.754-3.169,3.754-3.169v-13.823V524.596z M140.464,544.188c0,0,0.121,0.837-0.964,0.837
				c-1.063,0-1.063-0.837-1.063-0.837v-37.642c0,0,0-0.909,0.958-0.909c1.069,0,1.069,0.909,1.069,0.909V544.188z"/>
			<path fill="#A59890" d="M106.438,544.188c0,0,0,0.837-0.703,0.817c-0.709-0.099-0.709-0.817-0.709-0.817v-11.026h-2.764v11.026
				c0,0-0.122,3.169,3.428,3.169c3.555,0,3.555-3.169,3.555-3.169v-7.769c0,0,0,0.418-0.052-1.724
				c0-5.166-4.167-15.026-4.167-18.232c0-0.425,0-0.862,0-0.862v-9.055c0,0-0.095-0.909,0.664-0.909
				c0.749,0,0.749,0.909,0.749,0.909v9.917h2.806v-9.917c0,0,0.082-3.261-3.46-3.134c-3.522,0.112-3.522,3.134-3.522,3.134v6.574
				c0,0,0,1.145,0,1.874c0,5.489,4.176,14.801,4.176,19.065c0,2.777,0,1.021,0,1.021V544.188z"/>
		</g>
	</g>
</g>
</svg>
