<?xml version="1.0" encoding="utf-8"?>
<!-- Generator: Adobe Illustrator 15.0.0, SVG Export Plug-In . SVG Version: 6.00 Build 0)  -->
<!DOCTYPE svg PUBLIC "-//W3C//DTD SVG 1.1//EN" "http://www.w3.org/Graphics/SVG/1.1/DTD/svg11.dtd">
<svg version="1.1" id="Layer_1" xmlns="http://www.w3.org/2000/svg" xmlns:xlink="http://www.w3.org/1999/xlink" x="0px" y="0px"
	 width="841.89px" height="595.28px" viewBox="0 0 841.89 595.28" enable-background="new 0 0 841.89 595.28" xml:space="preserve">
<g>
	<g>
		<g>
			<g>
				<g>
					<path fill="#A59890" d="M357.083,447.546h-6.168v3.9h6.168v1.822h-6.168v6.562h-2.27v-14.108h8.438V447.546z"/>
					<path fill="#A59890" d="M368.986,445.536c5.221,0,8.513,3.307,8.513,7.232c0,3.809-3.201,7.232-8.555,7.232
						c-5.164,0-8.438-3.402-8.438-7.232C360.507,448.869,363.867,445.536,368.986,445.536z M368.986,458.144
						c3.546,0,6.168-2.293,6.168-5.375c0-3.096-2.622-5.38-6.168-5.38c-3.52,0-6.139,2.284-6.139,5.38
						C362.847,455.851,365.467,458.144,368.986,458.144z"/>
					<path fill="#A59890" d="M396.108,459.83h-1.954l-10.56-10.858v10.858h-2.136v-14.108h1.813l10.71,10.921v-10.921h2.127V459.83z
						"/>
					<path fill="#A59890" d="M400.812,445.722h6.14c5.846,0,8.417,3.717,8.417,7.047c0,3.616-3.18,7.062-8.396,7.062h-6.161V445.722
						z M403.08,458.008h3.616c5.15,0,6.332-3.501,6.332-5.239c0-2.833-2.021-5.223-6.44-5.223h-3.508V458.008z"/>
					<path fill="#A59890" d="M432.837,459.83h-2.321l-2.1-4.163h-6.721l-1.998,4.163h-2.319l6.794-14.188h1.602L432.837,459.83z
						 M422.579,453.848h4.906l-2.549-5.107L422.579,453.848z"/>
					<path fill="#A59890" d="M445.334,447.546h-5.469v12.284h-2.27v-12.284h-5.47v-1.824h13.208V447.546z"/>
					<path fill="#A59890" d="M451.479,459.83h-2.275v-14.108h2.275V459.83z"/>
					<path fill="#A59890" d="M463.969,445.536c5.215,0,8.506,3.307,8.506,7.232c0,3.809-3.201,7.232-8.549,7.232
						c-5.18,0-8.444-3.402-8.444-7.232C455.481,448.869,458.842,445.536,463.969,445.536z M463.969,458.144
						c3.541,0,6.16-2.293,6.16-5.375c0-3.096-2.619-5.38-6.16-5.38c-3.527,0-6.145,2.284-6.145,5.38
						C457.824,455.851,460.441,458.144,463.969,458.144z"/>
					<path fill="#A59890" d="M491.085,459.83h-1.951l-10.567-10.858v10.858h-2.129v-14.108h1.804l10.698,10.921v-10.921h2.146
						V459.83z"/>
				</g>
				<g>
					<g>
						<g>
							<g>
								<polygon fill="#A59890" points="426.125,488.994 444.521,488.994 444.521,486.733 429.268,486.733 429.268,479.56 
									440.733,479.56 440.733,477.271 429.268,477.271 429.268,470.671 444.521,470.671 444.521,468.363 426.125,468.363 								
									"/>
								<polygon fill="#A59890" points="435.677,465.104 433.168,467.895 441.017,465.104 								"/>
								<polygon fill="#A59890" points="475.373,486.733 475.373,468.363 472.502,468.363 472.502,488.994 491.085,488.994 
									491.085,486.733 								"/>
								<path fill="#A59890" d="M456.412,468.363l-10.449,20.631h3.55l2.655-5.326H464.7l2.725,5.326h3.487l-10.48-20.631H456.412z
									 M453.514,481.069l4.935-9.788l4.972,9.788H453.514z"/>
								<path fill="#A59890" d="M416.142,480.408c4.709-1.271,5.173-4.77,5.152-6.041c-0.289-3.656-2.737-6.004-7.19-6.004h-12.987
									v20.631h2.971v-8.614h8.433l6.212,8.614h3.722C422.455,488.994,418,483.189,416.142,480.408z M413.694,477.923h-9.605
									v-7.063h9.953c2.265,0,3.562,1.066,4.026,2.41c0.31,0.938,0.11,2.177-0.401,3.025
									C416.834,477.627,415.242,477.923,413.694,477.923z"/>
								<path fill="#A59890" d="M383.351,464.939c-8.333,0-13.984,5.898-13.984,12.992c0,7.495,6.256,12.781,13.984,12.781
									c7.778,0,14.021-5.228,14.021-12.781C397.372,470.838,391.659,464.939,383.351,464.939z M383.25,488.183
									c-5.734,0-10.478-4.646-10.478-10.251c0-5.581,4.526-10.434,10.701-10.434c6.081,0,10.546,4.853,10.546,10.434
									C394.019,483.537,389.025,488.183,383.25,488.183z"/>
								<polygon fill="#A59890" points="361.888,475.713 364.055,475.713 367.919,468.363 364.813,468.363 								"/>
								<polygon fill="#A59890" points="351.476,486.733 351.476,468.363 348.645,468.363 348.645,488.994 367.195,488.994 
									367.195,486.733 								"/>
							</g>
						</g>
					</g>
				</g>
			</g>
		</g>
		<g>
			<path fill="#003D63" d="M497.107,104.509c-96.232-37.113-203.197,2.73-253.05,89.447l10.234,10.229
				c48.943-83.046,150.393-121.521,241.186-86.508c101.351,39.077,151.034,154.941,110.984,258.765
				c-17.384,45.08-48.841,80.463-87.163,102.887c42.501-22.449,77.405-59.716,96.063-108.081
				C656.373,264.945,603.428,145.521,497.107,104.509z"/>
		</g>
		<g>
			<g>
				<path fill="#003D63" d="M291.607,319.51h-2.971v-5.074h2.971V319.51z M291.607,356.689h-2.971v-27.822h2.971V356.689z"/>
				<path fill="#003D63" d="M301.832,333.702h0.122c2.596-3.906,5.141-5.391,9.169-5.391c5.957,0,10.347,3.904,10.347,11.404v16.974
					h-2.971v-15.865c0-6.256-2.667-9.601-7.563-9.601c-4.034,0-6.625,1.916-9.104,5.954v19.512h-2.979v-27.822h2.979V333.702z"/>
				<path fill="#003D63" d="M375.445,305.495c-6.069-3.466-9.2-4.502-13.269-4.502c-7.115,0-12.497,4.854-12.497,11.275
					c0,15.789,28.193,8.235,28.193,28.972c0,9.11-7.546,16.228-17.173,16.228c-4.861,0-9.98-1.74-15.18-5.201v-5.378
					c6.587,4.769,10.318,6.33,14.917,6.33c7.026,0,12.497-5.117,12.497-11.808c0-16.821-28.205-9.448-28.205-28.97
					c0-8.766,7.638-15.705,17.016-15.705c4.597,0,9.097,1.217,13.7,3.736V305.495z"/>
				<path fill="#003D63" d="M413.011,323.459c-4.514-1.913-6.852-2.432-10.152-2.432c-8.677,0-14.662,6.592-14.662,16.311
					c0,9.807,5.813,16.052,15.009,16.052c3.553,0,6.161-0.519,10.497-2.249v4.332c-4.428,1.473-7.195,1.995-10.844,1.995
					c-11.456,0-19.087-7.896-19.087-19.699c0-12.223,7.807-20.824,18.914-20.824c3.386,0,5.982,0.521,10.325,1.918V323.459z"/>
				<path fill="#003D63" d="M425.246,304.633h-4.17v-7.118h4.17V304.633z M425.246,356.689h-4.17v-38.957h4.17V356.689z"/>
				<path fill="#003D63" d="M437.907,335.78c-1.208,9.979,6.679,17.609,15.527,17.609c5.21,0,9.46-1.732,14.485-5.813v4.69
					c-4.592,3.558-9.359,5.201-15.004,5.201c-11.277,0-19.435-8.675-19.435-20.735c0-11.449,7.547-19.788,17.873-19.788
					c8.337,0,17.257,5.82,17.257,18.836H437.907z M463.673,332.394c-1.471-7.631-5.635-11.366-12.318-11.366
					c-6.417,0-11.452,4.256-12.925,11.366H463.673z"/>
				<path fill="#003D63" d="M479.808,324.498h0.173c3.64-5.467,7.2-7.554,12.85-7.554c8.325,0,14.479,5.479,14.479,15.966v23.779
					h-4.16v-22.208c0-8.767-3.731-13.454-10.588-13.454c-5.643,0-9.282,2.699-12.753,8.332v27.33h-4.165v-38.957h4.165V324.498z"/>
				<path fill="#003D63" d="M544.356,323.459c-4.515-1.913-6.859-2.432-10.156-2.432c-8.665,0-14.662,6.592-14.662,16.311
					c0,9.807,5.818,16.052,15.014,16.052c3.553,0,6.16-0.519,10.492-2.249v4.332c-4.423,1.473-7.192,1.995-10.844,1.995
					c-11.449,0-19.082-7.896-19.082-19.699c0-12.223,7.802-20.824,18.913-20.824c3.386,0,5.989,0.521,10.325,1.918V323.459z"/>
				<path fill="#003D63" d="M554.239,335.78c-1.21,9.979,6.688,17.609,15.531,17.609c5.206,0,9.463-1.732,14.49-5.813v4.69
					c-4.596,3.558-9.368,5.201-15.013,5.201c-11.269,0-19.43-8.675-19.43-20.735c0-11.449,7.551-19.788,17.877-19.788
					c8.322,0,17.267,5.82,17.267,18.836H554.239z M580.017,332.394c-1.478-7.631-5.643-11.366-12.321-11.366
					c-6.426,0-11.449,4.256-12.927,11.366H580.017z"/>
			</g>
			<g>
				<path fill="#003D63" d="M223.575,247.028h-18.47v16.043h16.673v2.722h-16.673v20.769h-3.274v-42.265h21.744V247.028z"/>
				<path fill="#003D63" d="M240.005,287.116c-8.114,0-14.188-6.197-14.188-14.432c0-8.312,6.074-14.508,14.188-14.508
					c8.116,0,14.122,6.196,14.122,14.508C254.127,280.919,248.122,287.116,240.005,287.116z M240.005,261.093
					c-6.323,0-11.032,4.891-11.032,11.59c0,6.623,4.709,11.522,11.032,11.522c6.254,0,10.966-4.899,10.966-11.522
					C250.971,266.048,246.26,261.093,240.005,261.093z"/>
				<path fill="#003D63" d="M277.25,264.245c-2.673-2.41-4.034-3.152-5.579-3.152c-2.734,0-5.886,2.853-8.926,7.982v17.486h-2.98
					v-27.826h2.98v7.312h0.129c3.278-5.208,6.623-7.873,9.723-7.873c1.921,0,3.654,0.864,6.386,3.286L277.25,264.245z"/>
				<path fill="#003D63" d="M316.77,287.164h-1.214l-23.772-59.774h4.692l19.601,49.103l19.863-49.103h1.388l19.781,49.103
					l19.607-49.103h4.681l-23.766,59.774h-1.13l-19.868-49.971L316.77,287.164z"/>
				<path fill="#003D63" d="M397.463,287.341c-11.367,0-19.861-8.683-19.861-20.221c0-11.623,8.494-20.301,19.861-20.301
					s19.783,8.678,19.783,20.301C417.247,278.658,408.83,287.341,397.463,287.341z M397.463,250.896
					c-8.848,0-15.44,6.862-15.44,16.224c0,9.286,6.592,16.146,15.44,16.146c8.768,0,15.356-6.86,15.356-16.146
					C412.819,257.845,406.231,250.896,397.463,250.896z"/>
				<path fill="#003D63" d="M429.043,254.453h0.178c3.464-5.461,7.108-7.634,12.398-7.634c6.069,0,10.07,3.035,12.589,9.373
					c3.893-6.508,7.887-9.373,13.526-9.373c8.161,0,13.536,6.247,13.536,15.794v23.948h-4.16v-22.125
					c0-7.819-3.295-13.541-10.154-13.541c-4.77,0-7.896,2.601-11.801,9.114v26.551h-4.157v-22.209
					c0-9.644-4.787-13.457-10.241-13.457c-4.775,0-8.072,2.34-11.714,8.336v27.33h-4.17v-38.969h4.17V254.453z"/>
				<path fill="#003D63" d="M493.155,265.648c-1.212,9.974,6.675,17.618,15.53,17.618c5.206,0,9.457-1.739,14.487-5.825v4.695
					c-4.601,3.549-9.366,5.205-15.009,5.205c-11.282,0-19.432-8.683-19.432-20.739c0-11.456,7.547-19.782,17.863-19.782
					c8.334,0,17.27,5.809,17.27,18.829H493.155z M518.926,262.262c-1.484-7.639-5.645-11.366-12.33-11.366
					c-6.414,0-11.446,4.25-12.919,11.366H518.926z"/>
				<path fill="#003D63" d="M535.056,254.367h0.174c3.645-5.461,7.202-7.548,12.844-7.548c8.325,0,14.483,5.469,14.483,15.965
					v23.778h-4.162v-22.209c0-8.77-3.729-13.457-10.586-13.457c-5.64,0-9.287,2.683-12.753,8.336v27.33h-4.167v-38.969h4.167
					V254.367z"/>
			</g>
		</g>
	</g>
	<g>
		<g>
			<g>
				<g>
					<path fill="#A59890" d="M320.088,414.194c0.167,0.183,0.265,0.387,0.265,0.64c0,0.246-0.099,0.455-0.265,0.643
						c-0.176,0.169-0.413,0.266-0.673,0.266c-0.223,0-0.453-0.097-0.624-0.266c-0.185-0.188-0.255-0.396-0.255-0.643
						c0-0.253,0.07-0.457,0.255-0.64c0.171-0.167,0.401-0.261,0.624-0.261C319.676,413.934,319.913,414.027,320.088,414.194z"/>
					<path fill="#A59890" d="M320.088,417.672c0.167,0.164,0.265,0.385,0.265,0.636s-0.099,0.464-0.265,0.645
						c-0.176,0.183-0.413,0.256-0.673,0.256c-0.223,0-0.453-0.073-0.624-0.256c-0.185-0.181-0.255-0.394-0.255-0.645
						s0.07-0.472,0.255-0.636c0.171-0.169,0.401-0.27,0.624-0.27C319.676,417.402,319.913,417.503,320.088,417.672z"/>
				</g>
				<g>
					<path fill="#A59890" d="M320.088,421.138c0.167,0.174,0.265,0.39,0.265,0.636c0,0.251-0.099,0.464-0.265,0.645
						c-0.176,0.176-0.413,0.246-0.673,0.246c-0.223,0-0.453-0.07-0.624-0.246c-0.185-0.181-0.255-0.394-0.255-0.645
						c0-0.246,0.07-0.462,0.255-0.636c0.171-0.169,0.401-0.265,0.624-0.265C319.676,420.873,319.913,420.969,320.088,421.138z"/>
					<path fill="#A59890" d="M320.088,424.871c0.167,0.192,0.265,0.406,0.265,0.652c0,0.239-0.099,0.459-0.265,0.631
						c-0.176,0.181-0.413,0.265-0.673,0.265c-0.223,0-0.453-0.084-0.624-0.265c-0.185-0.172-0.255-0.392-0.255-0.631
						c0-0.246,0.07-0.46,0.255-0.652c0.171-0.154,0.401-0.253,0.624-0.253C319.676,424.618,319.913,424.717,320.088,424.871z"/>
				</g>
				<g>
					<path fill="#A59890" d="M320.088,428.628c0.167,0.169,0.265,0.395,0.265,0.629c0,0.263-0.099,0.469-0.265,0.628
						c-0.176,0.199-0.413,0.268-0.673,0.268c-0.223,0-0.453-0.068-0.624-0.268c-0.185-0.159-0.255-0.365-0.255-0.628
						c0-0.234,0.07-0.46,0.255-0.629c0.171-0.183,0.401-0.268,0.624-0.268C319.676,428.36,319.913,428.445,320.088,428.628z"/>
					<path fill="#A59890" d="M320.088,432.475c0.167,0.164,0.265,0.389,0.265,0.633c0,0.258-0.099,0.46-0.265,0.636
						c-0.176,0.176-0.413,0.26-0.673,0.26c-0.223,0-0.453-0.084-0.624-0.26c-0.185-0.176-0.255-0.378-0.255-0.636
						c0-0.244,0.07-0.469,0.255-0.633c0.171-0.188,0.401-0.263,0.624-0.263C319.676,432.212,319.913,432.286,320.088,432.475z"/>
				</g>
				<g>
					<path fill="#A59890" d="M320.088,436.32c0.167,0.169,0.265,0.389,0.265,0.628c0,0.254-0.099,0.47-0.265,0.662
						c-0.176,0.159-0.413,0.253-0.673,0.253c-0.223,0-0.453-0.094-0.624-0.253c-0.185-0.192-0.255-0.408-0.255-0.662
						c0-0.239,0.07-0.459,0.255-0.628c0.171-0.15,0.401-0.258,0.624-0.258C319.676,436.063,319.913,436.17,320.088,436.32z"/>
					<path fill="#A59890" d="M320.088,440.478c0.167,0.186,0.265,0.406,0.265,0.652s-0.099,0.46-0.265,0.641
						c-0.176,0.181-0.413,0.255-0.673,0.255c-0.223,0-0.453-0.074-0.624-0.255c-0.185-0.181-0.255-0.395-0.255-0.641
						s0.07-0.467,0.255-0.652c0.171-0.171,0.401-0.255,0.624-0.255C319.676,440.223,319.913,440.307,320.088,440.478z"/>
				</g>
				<g>
					<path fill="#A59890" d="M320.088,444.65c0.167,0.191,0.265,0.4,0.265,0.628c0,0.272-0.099,0.49-0.265,0.638
						c-0.176,0.195-0.413,0.274-0.673,0.274c-0.223,0-0.453-0.079-0.624-0.274c-0.185-0.147-0.255-0.365-0.255-0.638
						c0-0.228,0.07-0.437,0.255-0.628c0.171-0.179,0.401-0.261,0.624-0.261C319.676,444.39,319.913,444.472,320.088,444.65z"/>
				</g>
				<g>
					<path fill="#A59890" d="M320.088,449.05c0.167,0.154,0.265,0.389,0.265,0.623c0,0.263-0.099,0.46-0.265,0.643
						c-0.176,0.169-0.413,0.266-0.673,0.266c-0.223,0-0.453-0.097-0.624-0.266c-0.185-0.183-0.255-0.38-0.255-0.643
						c0-0.234,0.07-0.469,0.255-0.623c0.171-0.19,0.401-0.266,0.624-0.266C319.676,448.784,319.913,448.859,320.088,449.05z"/>
				</g>
				<g>
					<path fill="#A59890" d="M320.088,453.547c0.167,0.148,0.265,0.356,0.265,0.629c0,0.234-0.099,0.45-0.265,0.619
						c-0.176,0.169-0.413,0.265-0.673,0.265c-0.223,0-0.453-0.096-0.624-0.265c-0.185-0.169-0.255-0.385-0.255-0.619
						c0-0.272,0.07-0.48,0.255-0.629c0.171-0.191,0.401-0.283,0.624-0.283C319.676,453.264,319.913,453.355,320.088,453.547z"/>
				</g>
				<g>
					<path fill="#A59890" d="M320.088,458.219c0.167,0.181,0.265,0.405,0.265,0.649c0,0.256-0.099,0.462-0.265,0.631
						c-0.176,0.169-0.413,0.266-0.673,0.266c-0.223,0-0.453-0.097-0.624-0.266c-0.185-0.169-0.255-0.375-0.255-0.631
						c0-0.244,0.07-0.469,0.255-0.649c0.171-0.159,0.401-0.256,0.624-0.256C319.676,457.963,319.913,458.06,320.088,458.219z"/>
				</g>
				<g>
					<path fill="#A59890" d="M320.088,463.572c0.167,0.184,0.265,0.396,0.265,0.652c0,0.249-0.099,0.448-0.265,0.617
						c-0.176,0.183-0.413,0.274-0.673,0.274c-0.223,0-0.453-0.092-0.624-0.274c-0.185-0.169-0.255-0.368-0.255-0.617
						c0-0.256,0.07-0.469,0.255-0.652c0.171-0.18,0.401-0.27,0.624-0.27C319.676,463.303,319.913,463.393,320.088,463.572z"/>
				</g>
				<g>
					<path fill="#A59890" d="M320.088,469.442c0.167,0.192,0.265,0.398,0.265,0.638c0,0.258-0.099,0.47-0.265,0.641
						c-0.176,0.181-0.413,0.256-0.673,0.256c-0.223,0-0.453-0.075-0.624-0.256c-0.185-0.171-0.255-0.383-0.255-0.641
						c0-0.239,0.07-0.445,0.255-0.638c0.171-0.183,0.401-0.258,0.624-0.258C319.676,469.185,319.913,469.26,320.088,469.442z"/>
				</g>
				<g>
					<path fill="#A59890" d="M320.088,476.394c0.167,0.162,0.265,0.392,0.265,0.643c0,0.244-0.099,0.469-0.265,0.628
						c-0.176,0.192-0.413,0.272-0.673,0.272c-0.223,0-0.453-0.08-0.624-0.272c-0.185-0.159-0.255-0.384-0.255-0.628
						c0-0.251,0.07-0.48,0.255-0.643c0.171-0.169,0.401-0.253,0.624-0.253C319.676,476.141,319.913,476.225,320.088,476.394z"/>
				</g>
				<g>
					<path fill="#A59890" d="M320.088,483.879c0.167,0.164,0.265,0.38,0.265,0.633c0,0.259-0.099,0.46-0.265,0.631
						c-0.176,0.172-0.413,0.261-0.673,0.261c-0.223,0-0.453-0.089-0.624-0.261c-0.185-0.171-0.255-0.372-0.255-0.631
						c0-0.253,0.07-0.469,0.255-0.633c0.171-0.176,0.401-0.263,0.624-0.263C319.676,483.616,319.913,483.703,320.088,483.879z"/>
				</g>
				<g>
					<path fill="#A59890" d="M320.088,492.43c0.167,0.164,0.265,0.384,0.265,0.633c0,0.272-0.099,0.485-0.265,0.652
						c-0.176,0.164-0.413,0.239-0.673,0.239c-0.223,0-0.453-0.075-0.624-0.239c-0.185-0.167-0.255-0.38-0.255-0.652
						c0-0.249,0.07-0.469,0.255-0.633c0.171-0.179,0.401-0.268,0.624-0.268C319.676,492.162,319.913,492.251,320.088,492.43z"/>
				</g>
				<g>
					<path fill="#A59890" d="M320.088,502.04c0.167,0.183,0.265,0.394,0.265,0.643c0,0.253-0.099,0.459-0.265,0.626
						c-0.176,0.199-0.413,0.27-0.673,0.27c-0.223,0-0.453-0.07-0.624-0.27c-0.185-0.167-0.255-0.373-0.255-0.626
						c0-0.249,0.07-0.46,0.255-0.643c0.171-0.172,0.401-0.259,0.624-0.259C319.676,501.781,319.913,501.868,320.088,502.04z"/>
				</g>
				<g>
					<path fill="#A59890" d="M320.088,512.729c0.167,0.181,0.265,0.395,0.265,0.629c0,0.271-0.099,0.48-0.265,0.646
						c-0.176,0.165-0.413,0.261-0.673,0.261c-0.223,0-0.453-0.096-0.624-0.261c-0.185-0.166-0.255-0.375-0.255-0.646
						c0-0.234,0.07-0.448,0.255-0.629c0.171-0.183,0.401-0.26,0.624-0.26C319.676,512.469,319.913,512.546,320.088,512.729z"/>
				</g>
			</g>
		</g>
		<g>
			<path fill="#A59890" d="M265.546,428.147"/>
			<g>
				<rect x="229.096" y="482.317" fill="#A59890" width="73.21" height="3.006"/>
				<path fill="#A59890" d="M265.708,483.809"/>
			</g>
			<g>
				<rect x="224.964" y="487.425" fill="#A59890" width="81.338" height="3.034"/>
				<path fill="#A59890" d="M265.633,488.951"/>
			</g>
			<g>
				<rect x="221.127" y="492.542" fill="#A59890" width="89.161" height="3.022"/>
				<path fill="#A59890" d="M265.708,494.08"/>
			</g>
			<g>
				<rect x="229.096" y="444.791" fill="#A59890" width="73.21" height="3.006"/>
				<path fill="#A59890" d="M265.708,446.308"/>
			</g>
			<polygon fill="#A59890" points="243.903,442.39 265.708,435.959 287.025,442.39 295.932,442.39 265.708,433.194 235.001,442.39 
							"/>
			<polygon fill="#A59890" points="229.096,442.39 265.476,431.451 302.306,442.39 302.306,439.142 265.708,428.056 
				229.096,439.142 			"/>
			<path fill="#A59890" d="M233.411,478.316c0,0,0,2.272,2.587,2.272c2.619,0,2.46-2.272,2.46-2.272v-29.234h-1.921v29.328
				c0,0,0,0.507-0.678,0.507c-0.691,0-0.544-0.661-0.544-0.661v-29.174h-1.904V478.316z"/>
			<polygon fill="#A59890" points="245.451,480.589 246.975,480.589 246.975,462.518 248.884,480.589 250.507,480.589 
				250.507,449.082 248.884,449.082 248.884,464.161 247.833,449.082 245.451,449.082 			"/>
			<polygon fill="#A59890" points="257.641,480.589 262.558,480.589 262.558,478.917 259.789,478.917 259.789,464.693 
				261.866,464.693 261.866,462.956 259.789,462.956 259.789,450.677 261.866,450.677 261.866,449.082 257.641,449.082 			"/>
			<path fill="#A59890" d="M285.866,458.439v-7.11c0,0-0.061-2.247-2.516-2.247c-2.432,0-2.432,2.247-2.432,2.247v26.987
				c0,0-0.084,2.272,2.432,2.272c2.516,0,2.516-2.272,2.516-2.272v-7.905h-1.914v7.905c0,0,0,0.601-0.603,0.601
				c-0.565,0-0.697-0.601-0.697-0.601v-26.987c0,0,0-0.652,0.697-0.652c0.603,0,0.603,0.652,0.603,0.652v7.11H285.866z"/>
			<path fill="#A59890" d="M298.08,464.27v-12.94c0,0,0.174-2.247-2.525-2.247c-2.674,0-2.674,2.247-2.674,2.247v26.987
				c0,0,0,2.272,2.507,2.272c2.692,0,2.692-2.272,2.692-2.272v-9.91V464.27z M296.246,478.316c0,0,0.087,0.601-0.691,0.601
				c-0.762,0-0.762-0.601-0.762-0.601v-26.987c0,0,0-0.652,0.687-0.652c0.767,0,0.767,0.652,0.767,0.652V478.316z"/>
			<path fill="#A59890" d="M271.85,478.316c0,0,0,0.601-0.504,0.586c-0.509-0.07-0.509-0.586-0.509-0.586v-7.905h-1.981v7.905
				c0,0-0.087,2.272,2.458,2.272c2.549,0,2.549-2.272,2.549-2.272v-5.569c0,0,0,0.3-0.038-1.236c0-3.703-2.988-10.773-2.988-13.071
				c0-0.305,0-0.619,0-0.619v-6.491c0,0-0.068-0.652,0.476-0.652c0.537,0,0.537,0.652,0.537,0.652v7.11h2.012v-7.11
				c0,0,0.059-2.338-2.481-2.247c-2.525,0.08-2.525,2.247-2.525,2.247v4.714c0,0,0,0.82,0,1.344c0,3.935,2.995,10.611,2.995,13.669
				c0,1.991,0,0.732,0,0.732V478.316z"/>
		</g>
	</g>
</g>
</svg>
